<?xml version="1.0" encoding="utf-8"?>
<svg viewBox="899.8999633789062 70.69999694824219 305.90020751953125 233.59996032714844" width="305.90020751953125" height="233.59996032714844" xmlns="http://www.w3.org/2000/svg"><g transform="matrix(1, 0, 0, 1, 0, 0)"><g transform="matrix(1, 0, 0, 1, 0, 0)">
	<g>
		<path fill="#DF6184" d="M1032.5,152.9c0,0-131.1,45.6-123.3,139.6l38.8-21l31.8,30.3c0,0,21.6-87.4,55.9-106.9L1032.5,152.9z"/>
		<path fill="#903A54" d="M979.9,304.3c-0.6,0-1.3-0.2-1.8-0.7l-30.5-29l-37.2,20.1c-0.8,0.4-1.7,0.4-2.4,0c-0.8-0.4-1.3-1.2-1.3-2&#10;&#9;&#9;&#9;c-3.3-39.3,17.4-76.4,59.8-107.3c31.7-23.1,64.9-34.8,65.2-34.9c0.7-0.3,1.6-0.2,2.2,0.3c0.7,0.4,1.1,1.1,1.1,1.9l3.2,42&#10;&#9;&#9;&#9;c0.1,1-0.4,1.9-1.3,2.4c-32.9,18.8-54.4,104.4-54.6,105.3c-0.2,0.9-0.9,1.6-1.8,1.8C980.3,304.3,980.1,304.3,979.9,304.3z&#10;&#9;&#9;&#9; M948,269c0.6,0,1.3,0.2,1.8,0.7l28.7,27.3c4.8-17.7,24.6-84.6,54.6-103.5l-2.8-37.1c-8.9,3.4-35.4,14.5-60.9,33.1&#10;&#9;&#9;&#9;c-39.9,29.1-59.4,62.3-57.9,98.8l35.3-19.1C947.2,269.1,947.6,269,948,269z"/>
	</g>
	<g>
		<path fill="#DF6184" d="M1074.7,152.9c0,0,131.1,45.6,123.3,139.6l-38.8-21l-31.8,30.3c0,0-21.6-87.4-55.9-106.9L1074.7,152.9z"/>
		<path fill="#903A54" d="M1127.4,304.3c-0.2,0-0.5,0-0.7-0.1c-0.9-0.3-1.5-1-1.8-1.8c-0.2-0.9-21.8-86.5-54.6-105.3&#10;&#9;&#9;&#9;c-0.9-0.5-1.3-1.4-1.3-2.4l3.2-42c0.1-0.8,0.5-1.5,1.1-1.9c0.7-0.4,1.5-0.5,2.2-0.3c0.3,0.1,33.5,11.8,65.2,34.9&#10;&#9;&#9;&#9;c42.4,30.8,63,67.9,59.8,107.3c-0.1,0.9-0.6,1.6-1.3,2c-0.8,0.4-1.7,0.4-2.4,0l-37.2-20.1l-30.5,29&#10;&#9;&#9;&#9;C1128.6,304.1,1128,304.3,1127.4,304.3z M1074.2,193.5c30,18.8,49.8,85.8,54.6,103.5l28.7-27.3c0.8-0.8,2-0.9,3-0.4l35.3,19.1&#10;&#9;&#9;&#9;c1.5-36.5-17.9-69.7-58-98.8c-25.5-18.6-51.9-29.6-60.8-33L1074.2,193.5z"/>
	</g>
	<g>
		<g>
			<g>
				<path fill="#F1698E" d="M952.1,73.4c-7.2-0.9-14.4,1.8-19.3,7.1c-10.5,11.4-28.8,35.7-30,68c-0.1,2.4,0.8,5.2,3,5.9&#10;&#9;&#9;&#9;&#9;&#9;c46.2,13.7,52.8-0.8,130.3,24.5v-26.7C1036,152.2,996.6,79.2,952.1,73.4z"/>
				<path fill="#DF6184" d="M993.7,96.4c0.3,0.9,0.7,1.8,1.5,2.8c10.8,14,37.7,64.2,37.7,64.2c-19.2-23.4-66.1-38.7-66.1-38.7&#10;&#9;&#9;&#9;&#9;&#9;c19.7,7.7,56.1,39.4,56.1,39.4s-41.6-15.9-78.7-21.4c-20.2-3-31.4-11.1-37.4-17.9c-2.2,7.3-3.7,15.2-4,23.6&#10;&#9;&#9;&#9;&#9;&#9;c-0.1,2.4,0.8,5.2,3,5.9c46.2,13.7,52.8-0.8,130.3,24.5v-26.7C1036,152.2,1018.5,119.8,993.7,96.4z"/>
				<path fill="#903A54" d="M1036,181.5c-0.3,0-0.5,0-0.8-0.1c-44.6-14.6-65.6-15.9-84.2-17c-13.6-0.8-26.4-1.6-46.1-7.5&#10;&#9;&#9;&#9;&#9;&#9;c-3.5-1-5-5-4.8-8.4c1.2-33,19.8-57.8,30.7-69.6c4.8-5.1,11.5-8.1,18.4-8.1c1.1,0,2.1,0.1,3.2,0.2c45.3,5.9,84.2,77.1,85.8,80.1&#10;&#9;&#9;&#9;&#9;&#9;c0.2,0.4,0.3,0.8,0.3,1.2v26.7c0,0.8-0.4,1.6-1.1,2.1C1037.1,181.3,1036.6,181.5,1036,181.5z M949.3,75.8&#10;&#9;&#9;&#9;&#9;&#9;c-5.5,0-10.9,2.4-14.7,6.5c-10.5,11.3-28.2,35-29.4,66.4c-0.1,1.6,0.5,3.1,1.2,3.4c19.2,5.7,31.1,6.4,44.9,7.3&#10;&#9;&#9;&#9;&#9;&#9;c18.4,1.1,39.2,2.4,82.1,16.2v-22.6c-3.7-6.7-41-71.6-81.7-76.9C951,75.8,950.1,75.8,949.3,75.8z"/>
			</g>
		</g>
		<g>
			<g>
				<path fill="#F1698E" d="M1036,175.4c0,0-94.1-30.1-125.1-1.1c-5,4.6-7.1,11.7-6,18.9c2.3,15.2,9.6,44.4,32.5,67.1&#10;&#9;&#9;&#9;&#9;&#9;c2.6,2.5,6.3,3.4,9.8,2.4c16.4-4.7,64.7-22.8,94.7-78.6L1036,175.4z"/>
				<path fill="#DF6184" d="M1042,184.2l-5.9-8.8c0,0-94.1-30.1-125.1-1.1c-2.5,2.4-4.3,5.4-5.4,8.8l3.3-1.6c0,0,14.1-17,100.9-7.8&#10;&#9;&#9;&#9;&#9;&#9;c0,0-24.1,4-41.9,22c0,0,26.1-7.7,50.1-9.6c0,0-68.3,20.7-87.4,66.7c2.1,2.6,4.4,5.1,6.9,7.6c2.6,2.5,6.3,3.4,9.8,2.4&#10;&#9;&#9;&#9;&#9;&#9;C963.7,258.1,1011.9,240,1042,184.2z"/>
				<path fill="#903A54" d="M944.5,265.7L944.5,265.7c-3.3,0-6.4-1.3-8.8-3.6c-23.4-23.2-30.9-52.9-33.3-68.6&#10;&#9;&#9;&#9;&#9;&#9;c-1.2-8.1,1.3-16,6.8-21.2c9.4-8.8,25.1-13.3,46.6-13.3c37.3,0,80.5,13.7,81,13.8c0.5,0.2,1,0.5,1.3,1l5.9,8.8&#10;&#9;&#9;&#9;&#9;&#9;c0.5,0.8,0.6,1.8,0.1,2.6c-30,55.7-77.3,74.4-96.2,79.9C946.8,265.6,945.6,265.7,944.5,265.7z M955.8,164.2&#10;&#9;&#9;&#9;&#9;&#9;c-20.2,0-34.7,4-43.1,12c-4.3,4-6.2,10.2-5.2,16.7c2.3,15,9.5,43.6,31.8,65.7c1.4,1.4,3.2,2.1,5.2,2.1l0,0&#10;&#9;&#9;&#9;&#9;&#9;c0.7,0,1.4-0.1,2.1-0.3c14.2-4.1,62.5-21.6,92.4-76l-4.6-6.8C1028.3,175.6,989.5,164.2,955.8,164.2z"/>
			</g>
			<g>
				<path fill="#B84F6E" d="M939.5,262.3C939.5,262.3,939.6,262.3,939.5,262.3c1.3,1.2,3.1,1.7,4.8,1.3&#10;&#9;&#9;&#9;&#9;&#9;c12.6-3.2,65.5-19.8,97.6-79.4C932.4,234.9,935,256.3,939.5,262.3z"/>
				<path fill="#903A54" d="M943.1,266.3L943.1,266.3c-2,0-3.8-0.7-5.3-2.1c0,0-0.1-0.1-0.1-0.1c-0.1-0.1-0.2-0.2-0.2-0.3&#10;&#9;&#9;&#9;&#9;&#9;c-1.4-1.9-2.9-5.2-1.7-10.1c4.4-17.4,39.8-41.6,105.1-71.9c1-0.5,2.2-0.2,2.9,0.6c0.7,0.8,0.9,2,0.4,2.9&#10;&#9;&#9;&#9;&#9;&#9;c-32.1,59.6-84,76.8-99.2,80.7C944.4,266.2,943.8,266.3,943.1,266.3z M941.4,260.6c0.5,0.4,1.1,0.6,1.7,0.6l0,0&#10;&#9;&#9;&#9;&#9;&#9;c0.2,0,0.4,0,0.6-0.1c10-2.5,59.8-17.6,92.1-71.3c-77.4,36.6-92.9,56.4-95,65.1C940.2,257.2,940.4,259.1,941.4,260.6z"/>
			</g>
		</g>
		<g>
			<g>
				<path fill="#F1698E" d="M1153.8,73.4c7.2-0.9,14.4,1.8,19.3,7.1c10.5,11.4,28.8,35.7,30,68c0.1,2.4-0.8,5.2-3,5.9&#10;&#9;&#9;&#9;&#9;&#9;c-46.2,13.7-52.8-0.8-130.3,24.5v-26.7C1069.9,152.2,1109.3,79.2,1153.8,73.4z"/>
				<path fill="#DF6184" d="M1112.7,96.4c-0.3,0.9-0.7,1.8-1.5,2.8c-10.8,14-37.7,64.2-37.7,64.2c19.2-23.4,66.1-38.7,66.1-38.7&#10;&#9;&#9;&#9;&#9;&#9;c-19.7,7.7-56.1,39.4-56.1,39.4s41.6-15.9,78.7-21.4c20.2-3,31.4-11.1,37.4-17.9c2.2,7.3,3.7,15.2,4,23.6c0.1,2.4-0.8,5.2-3,5.9&#10;&#9;&#9;&#9;&#9;&#9;c-46.2,13.7-52.8-0.8-130.3,24.5v-26.7C1070.3,152.2,1087.9,119.8,1112.7,96.4z"/>
				<path fill="#903A54" d="M1069.9,181.5c-0.5,0-1.1-0.2-1.5-0.5c-0.7-0.5-1.1-1.2-1.1-2.1v-26.7c0-0.4,0.1-0.8,0.3-1.2&#10;&#9;&#9;&#9;&#9;&#9;c1.6-3,40.6-74.2,85.8-80.1c1-0.1,2.1-0.2,3.2-0.2c6.9,0,13.6,3,18.4,8.1c10.9,11.8,29.5,36.6,30.7,69.6&#10;&#9;&#9;&#9;&#9;&#9;c0.1,3.4-1.3,7.4-4.8,8.4c-19.7,5.8-32.5,6.6-46.1,7.5c-18.5,1.2-39.6,2.5-84.2,17C1070.4,181.4,1070.2,181.5,1069.9,181.5z&#10;&#9;&#9;&#9;&#9;&#9; M1072.5,152.9v22.6c42.9-13.8,63.7-15.1,82.1-16.2c13.8-0.9,25.8-1.6,44.9-7.3c0.7-0.2,1.3-1.7,1.2-3.4&#10;&#9;&#9;&#9;&#9;&#9;c-1.2-31.4-18.9-55-29.4-66.4c-4.4-4.7-10.9-7.1-17.2-6.3C1113.5,81.2,1076.2,146.2,1072.5,152.9z"/>
			</g>
		</g>
		<g>
			<g>
				<path fill="#F1698E" d="M1069.9,175.4c0,0,94.1-30.1,125.1-1.1c5,4.6,7.1,11.7,6,18.9c-2.3,15.2-9.6,44.4-32.5,67.1&#10;&#9;&#9;&#9;&#9;&#9;c-2.6,2.5-6.3,3.4-9.8,2.4c-16.4-4.7-64.7-22.8-94.7-78.6L1069.9,175.4z"/>
				<path fill="#DF6184" d="M1064.4,184.2l5.9-8.8c0,0,94.1-30.1,125.1-1.1c2.5,2.4,4.3,5.4,5.4,8.8l-3.3-1.6c0,0-14.1-17-100.9-7.8&#10;&#9;&#9;&#9;&#9;&#9;c0,0,24.1,4,41.9,22c0,0-26.1-7.7-50.1-9.6c0,0,68.3,20.7,87.4,66.7c-2.1,2.6-4.4,5.1-6.9,7.6c-2.6,2.5-6.3,3.4-9.8,2.4&#10;&#9;&#9;&#9;&#9;&#9;C1142.7,258.1,1094.4,240,1064.4,184.2z"/>
				<path fill="#903A54" d="M1161.5,265.7c-1.2,0-2.4-0.2-3.5-0.5c-18.9-5.4-66.2-24.1-96.2-79.9c-0.4-0.8-0.4-1.8,0.1-2.6l5.9-8.8&#10;&#9;&#9;&#9;&#9;&#9;c0.3-0.5,0.8-0.8,1.3-1c0.4-0.1,43.6-13.8,81-13.8c21.5,0,37.2,4.5,46.6,13.3c5.5,5.2,8,13.1,6.8,21.2&#10;&#9;&#9;&#9;&#9;&#9;c-2.4,15.7-9.9,45.4-33.3,68.6C1167.9,264.5,1164.8,265.7,1161.5,265.7z M1066.9,184.3c30,54.5,78.2,72,92.4,76&#10;&#9;&#9;&#9;&#9;&#9;c2.6,0.7,5.4,0,7.3-1.8c22.3-22.2,29.5-50.7,31.8-65.7c1-6.4-1-12.7-5.2-16.7c-8.5-7.9-23-12-43.1-12&#10;&#9;&#9;&#9;&#9;&#9;c-33.7,0-72.4,11.4-78.6,13.3L1066.9,184.3z"/>
			</g>
			<g>
				<path fill="#B84F6E" d="M1166.4,262.3C1166.4,262.3,1166.4,262.3,1166.4,262.3c-1.3,1.2-3.1,1.7-4.8,1.3&#10;&#9;&#9;&#9;&#9;&#9;c-12.6-3.2-65.5-19.8-97.6-79.4C1173.6,234.9,1170.9,256.3,1166.4,262.3z"/>
				<path fill="#903A54" d="M1162.8,266.3c-0.6,0-1.3-0.1-1.9-0.2c-15.2-3.8-67.1-21-99.2-80.7c-0.5-1-0.4-2.2,0.4-2.9&#10;&#9;&#9;&#9;&#9;&#9;c0.7-0.8,1.9-1,2.9-0.6c65.3,30.2,100.7,54.4,105.1,71.9c1.2,4.9-0.2,8.2-1.7,10.1c-0.1,0.1-0.2,0.3-0.3,0.4v0&#10;&#9;&#9;&#9;&#9;&#9;C1166.7,265.6,1164.8,266.3,1162.8,266.3z M1070.1,189.9c32.2,53.7,82,68.7,92.1,71.3c0.8,0.2,1.7,0,2.3-0.5&#10;&#9;&#9;&#9;&#9;&#9;c1-1.5,1.2-3.4,0.7-5.6C1163,246.3,1147.6,226.5,1070.1,189.9z"/>
			</g>
		</g>
		<g>
			<path fill="#F1698E" d="M1061.8,141.8h-17.7c-6.4,0-11.6,5-11.6,11.1v33.8c0,6.1,5.2,11.1,11.6,11.1h17.7c6.4,0,11.6-5,11.6-11.1&#10;&#9;&#9;&#9;&#9;v-33.8C1073.4,146.8,1068.2,141.8,1061.8,141.8z"/>
			<path fill="#DF6184" d="M1032.5,174.6v12.1c0,6.1,5.2,11.1,11.6,11.1h17.7c6.4,0,11.6-5,11.6-11.1v-12.3&#10;&#9;&#9;&#9;&#9;C1055.4,180.3,1041.4,177.9,1032.5,174.6z"/>
			<path fill="#903A54" d="M1061.8,200.3h-17.7c-7.8,0-14.1-6.1-14.1-13.7v-33.8c0-7.5,6.3-13.7,14.1-13.7h17.7&#10;&#9;&#9;&#9;&#9;c7.8,0,14.1,6.1,14.1,13.7v33.8C1075.9,194.2,1069.6,200.3,1061.8,200.3z M1044.1,144.3c-5,0-9,3.8-9,8.6v33.8c0,4.7,4,8.6,9,8.6&#10;&#9;&#9;&#9;&#9;h17.7c5,0,9-3.8,9-8.6v-33.8c0-4.7-4-8.6-9-8.6H1044.1z"/>
		</g>
		<g>
			<path fill="#903A54" d="M1031.2,164.2c-0.7,0-1.4-0.3-1.9-0.8c-0.3-0.3-28.7-30.4-64.7-39.2c-1.4-0.3-2.2-1.7-1.9-3.1&#10;&#9;&#9;&#9;&#9;c0.3-1.4,1.7-2.2,3.1-1.9c37.6,9.2,66.1,39.4,67.3,40.7c1,1,0.9,2.6-0.1,3.6C1032.4,164,1031.8,164.2,1031.2,164.2z"/>
		</g>
		<g>
			<path fill="#903A54" d="M1073.4,166.4c-0.5,0-1.1-0.2-1.5-0.5c-1.1-0.9-1.3-2.4-0.5-3.6c0.9-1.2,22-28.5,54.9-43&#10;&#9;&#9;&#9;&#9;c1.3-0.6,2.8,0,3.3,1.3c0.6,1.3,0,2.8-1.3,3.3c-31.7,13.9-52.7,41.1-52.9,41.4C1074.9,166.1,1074.2,166.4,1073.4,166.4z"/>
		</g>
		<g>
			<path fill="#903A54" d="M1138.3,193.6c-0.4,0-0.7-0.1-1.1-0.2c-32.2-15.1-63.1-9.7-63.4-9.7c-1.4,0.3-2.7-0.7-3-2&#10;&#9;&#9;&#9;&#9;c-0.3-1.4,0.7-2.7,2-3c1.3-0.2,32.7-5.8,66.5,10.1c1.3,0.6,1.8,2.1,1.2,3.4C1140.2,193,1139.3,193.6,1138.3,193.6z"/>
		</g>
		<g>
			<path fill="#903A54" d="M969.4,200.3c-0.8,0-1.6-0.4-2.1-1.1c-0.8-1.1-0.5-2.7,0.6-3.5c26.8-19,63.2-17.2,64.8-17.1&#10;&#9;&#9;&#9;&#9;c1.4,0.1,2.5,1.3,2.4,2.7c-0.1,1.4-1.3,2.5-2.7,2.4c-0.4,0-36.2-1.8-61.5,16.2C970.4,200.2,969.9,200.3,969.4,200.3z"/>
		</g>
	</g>
</g></g></svg>